<svg xmlns="http://www.w3.org/2000/svg" xmlns:xlink="http://www.w3.org/1999/xlink" id="Layer_1" data-name="Layer 1" viewBox="0 0 216 216">
 <defs>
  <style>
   .cls-1 {
    fill: url(#linear-gradient);
   }

   .cls-2 {
    fill: url(#linear-gradient-2);
   }

   .cls-3 {
    fill: url(#linear-gradient-3);
   }

   .cls-4 {
    fill: url(#linear-gradient-4);
   }

   .cls-5 {
    fill: url(#linear-gradient-5);
   }

   .cls-6 {
    fill: url(#linear-gradient-6);
   }

   .cls-7 {
    fill: url(#linear-gradient-7);
   }

   .cls-8 {
    fill: url(#linear-gradient-8);
   }
  </style>
  <linearGradient id="linear-gradient" x1="24.51" y1="15.94" x2="207.49" y2="208.56" gradientUnits="userSpaceOnUse">
   <stop offset="0" stop-color="#ffc261" />
   <stop offset="1" stop-color="#ffc261" />
  </linearGradient>
  <linearGradient id="linear-gradient-2" x1="19.47" y1="20.73" x2="202.45" y2="213.34" xlink:href="#linear-gradient" />
  <linearGradient id="linear-gradient-3" x1="23.64" y1="16.77" x2="206.62" y2="209.38" xlink:href="#linear-gradient" />
  <linearGradient id="linear-gradient-4" x1="67.21" y1="-24.63" x2="250.19" y2="167.99" xlink:href="#linear-gradient" />
  <linearGradient id="linear-gradient-5" x1="52.1" y1="-10.27" x2="235.08" y2="182.34" xlink:href="#linear-gradient" />
  <linearGradient id="linear-gradient-6" x1="-2.58" y1="41.67" x2="180.41" y2="234.28" xlink:href="#linear-gradient" />
  <linearGradient id="linear-gradient-7" x1="57.72" y1="-15.6" x2="240.7" y2="177.01" xlink:href="#linear-gradient" />
  <linearGradient id="linear-gradient-8" x1="85.61" y1="-42.11" x2="268.59" y2="150.51" xlink:href="#linear-gradient" />
 </defs>
 <path class="cls-1" d="M32,39.92c0-5,0-9.56,0-14.13,0-9.26,6.79-16,16.07-16h119.8c9.43,0,16.16,6.73,16.17,16.14,0,4.56,0,9.12,0,13.91,2.34,0,4.52-.07,6.69,0a30.3,30.3,0,0,1,5.72.55c6.59,1.55,10.35,6.41,10.35,13.18q0,52.33,0,104.68c0,8.47-5.59,14.22-14.14,14.29-10.35.1-20.7,0-31,0H127.91v9.91h8.56c6.1,0,9.45,3.36,9.48,9.48,0,2.25.05,4.51-.1,6.76a7.91,7.91,0,0,1-6.7,7.33,17.39,17.39,0,0,1-3,.22H80.26c-6.61,0-10-3.32-10-9.88,0-1.72,0-3.45,0-5.17,0-5.14,3.38-8.63,8.55-8.73,3-.06,6.07,0,9.37,0v-9.92H85.75c-20.3,0-40.6,0-60.9,0a22.11,22.11,0,0,1-6.07-.76C12.6,170,9.22,165.36,9.22,159q0-40.3,0-80.6,0-12.33,0-24.67C9.23,46.11,14.38,40.47,22,40,25.24,39.74,28.49,39.92,32,39.92Zm6.35,103.45h139.3V39.31H38.33Zm-23,6.47c0,3.14,0,6,0,8.95a6.92,6.92,0,0,0,6.12,7.34,20.5,20.5,0,0,0,3.76.28q33.72-.06,67.44-.13c11.53,0,23.07.12,34.61.13q31.94,0,63.87,0a14.41,14.41,0,0,0,3.35-.29c2.85-.69,5.54-2.06,5.9-5.17.43-3.63.11-7.35.11-11.11Zm162.35-117c0-2.65,0-5.16,0-7.67a9.15,9.15,0,0,0-9.1-9.11c-2.26,0-4.51,0-6.77,0H48c-4.89,0-8.93,3-9.51,7.59a74.06,74.06,0,0,0-.07,9.2Zm6.38,110.52h16.61v-2.06q0-43.88,0-87.73c0-3.88-1.89-6.6-5.72-7.2a102.51,102.51,0,0,0-10.89-.59ZM31.91,46c-3.09,0-5.94-.11-8.78,0-5,.24-7.8,3.27-7.8,8.31v89.1H31.91ZM108.26,200h28.23c2.82,0,3.32-.53,3.33-3.39,0-1.33,0-2.66,0-4,0-3.57-.46-4.06-4-4q-21.38.07-42.75.14c-4.37,0-8.74-.11-13.12-.13-3,0-3.47.42-3.47,3.38,0,1.59,0,3.18,0,4.78,0,2.62.63,3.25,3.29,3.25ZM94.51,182.31h26.91v-9.57H94.51Z" />
 <path class="cls-2" d="M69.74,103.33c0,2.32-.06,4.57.05,6.82a2,2,0,0,0,1,1.41,11.22,11.22,0,0,1,6.5,6.61c.48,1.3,1.39,1,2.25,1h52.94a16.49,16.49,0,0,1,2,0c2.5.34,4-.3,5.34-2.87,2.34-4.65,8.06-6.53,13-5a11.43,11.43,0,0,1-1.12,22.09,11.19,11.19,0,0,1-12.44-6.08c-.79-1.71-1.73-2.07-3.43-2.07q-28.07.09-56.13,0a2.53,2.53,0,0,0-2.79,1.78,11.19,11.19,0,0,1-12.28,6.41,11.32,11.32,0,0,1-9.28-9.64A11.08,11.08,0,0,1,61.76,112c1.39-.62,2-1.33,1.75-2.8a4,4,0,0,1,0-1.19c.36-2.85-.15-4.81-3.22-6.37-4.32-2.2-5.95-7.54-4.72-12.26A11.46,11.46,0,0,1,65.18,81c5.13-.51,9.69,1.89,11.7,6.44a2.66,2.66,0,0,0,3,1.86c5.11-.1,10.22-.07,15.32,0,1.18,0,1.92-.17,2.4-1.46a10.15,10.15,0,0,1,6-6,1.72,1.72,0,0,0,1.31-2.06,8.92,8.92,0,0,1,0-1.79c.31-2.95-.07-5-3.34-6.71-4.55-2.33-6-8.19-4.3-13.06a11.41,11.41,0,0,1,21.92,1.52A11.16,11.16,0,0,1,113,72.24c-1.44.65-2.12,1.38-1.85,2.93a4,4,0,0,1,0,1.19c-.33,3,.08,5.07,3.34,6.7,4.23,2.12,5.8,7.45,4.61,12.13a11.48,11.48,0,0,1-9.77,8.45,11.1,11.1,0,0,1-11.52-6.43c-.71-1.65-1.6-1.91-3.12-1.89-5.11.07-10.22.06-15.33,0a2,2,0,0,0-2.22,1.4A11.27,11.27,0,0,1,69.74,103.33Zm33.08-11.11a5.2,5.2,0,1,0,10.39.14A5.09,5.09,0,0,0,108,87.09,5,5,0,0,0,102.82,92.22Zm5.08-25.06A5,5,0,0,0,113.21,62a5.21,5.21,0,1,0-10.42,0A5,5,0,0,0,107.9,67.16ZM71.79,92.24A5.15,5.15,0,0,0,66.67,87a5.23,5.23,0,0,0-5.27,5.3,5,5,0,0,0,5.36,5.1A4.91,4.91,0,0,0,71.79,92.24Zm-5.13,24.88a5,5,0,0,0-5.26,5.19,5.21,5.21,0,0,0,5.18,5.19,5.13,5.13,0,0,0,5.21-5.31A4.87,4.87,0,0,0,66.66,117.12Zm82.63-.09a5.09,5.09,0,0,0-5.08,5.4,5.15,5.15,0,0,0,5.26,5.07,5.24,5.24,0,0,0,5.12-5.44A5.17,5.17,0,0,0,149.29,117Z" />
 <path class="cls-3" d="M66.69,50.65A11.39,11.39,0,1,1,55.18,61.91,11.37,11.37,0,0,1,66.69,50.65Zm5.14,11.41a5.22,5.22,0,1,0-5.15,5.22A5.21,5.21,0,0,0,71.83,62.06Z" />
 <path class="cls-4" d="M145,62c-1.32-1.32-2.55-2.52-3.73-3.76-1.42-1.48-1.49-3.34-.24-4.59s3.06-1.3,4.56.24c1.25,1.27,2.29,2.73,3.42,4.11l1-.07c1.1-1.32,2.11-2.73,3.32-3.95,1.61-1.63,3.38-1.67,4.71-.29s1.14,3.1-.46,4.72c-1.16,1.17-2.38,2.29-3.7,3.55,1.38,1.33,2.63,2.5,3.82,3.72,1.49,1.53,1.59,3.27.35,4.58s-3.12,1.36-4.71-.25c-1.21-1.22-2.25-2.61-3.36-3.92L149,66c-1,1.29-2,2.67-3.12,3.85-1.72,1.79-3.47,1.91-4.86.54s-1.14-3.2.5-4.87Z" />
 <path class="cls-5" d="M149.58,88.82c1.61-1.93,2.66-3.39,3.91-4.65,1.51-1.52,3.28-1.52,4.57-.2s1.18,3.06-.29,4.58c-1.19,1.24-2.45,2.4-3.83,3.75,1.33,1.29,2.59,2.45,3.78,3.67,1.55,1.59,1.62,3.42.25,4.72s-3,1.2-4.57-.36c-1.21-1.21-2.25-2.59-3.37-3.9l-1-.21c-1.11,1.39-2.12,2.87-3.36,4.14-1.55,1.6-3.43,1.58-4.71.17s-1-3.09.46-4.59c1.16-1.18,2.33-2.35,3.67-3.69-1.21-1.19-2.43-2.35-3.62-3.55-1.55-1.58-1.7-3.43-.42-4.73s3.1-1.3,4.71.33C146.93,85.52,148,86.9,149.58,88.82Z" />
 <path class="cls-6" d="M108,155c1.26,0,2.51-.05,3.76,0a3,3,0,0,1,3,3,3,3,0,0,1-3,3c-2.5.08-5,.08-7.52,0a2.94,2.94,0,0,1-3-3,3,3,0,0,1,3-3C105.5,155,106.76,155,108,155Z" />
 <path class="cls-7" d="M95.46,21.26H127.3a10.65,10.65,0,0,1,1.79,0,2.94,2.94,0,0,1,2.66,3,2.86,2.86,0,0,1-2.59,3,14.35,14.35,0,0,1-2.18.1H64.29q-4.86,0-4.78-3.17c.05-2.06,1.55-3,4.71-3Z" />
 <path class="cls-8" d="M148.83,21.27c1.46,0,2.92-.05,4.38,0a3.14,3.14,0,0,1,3.28,3,3,3,0,0,1-3,3.07q-4.67.16-9.35,0a3,3,0,0,1-3.06-3,3.08,3.08,0,0,1,3.21-3.1C145.78,21.22,147.31,21.27,148.83,21.27Z" />
</svg>