<svg xmlns="http://www.w3.org/2000/svg" id="Layer_1" data-name="Layer 1" version="1.1" viewBox="0 0 74 74">
  <defs>
    <style>
      .cls-1 {
        fill: #ffc261;
        stroke-width: 0px;
      }
    </style>
  </defs>
  <path class="cls-1" d="M55.5,14.4h0c-.9,0-1.7.3-2.3.9-.2.2-.2.5,0,.7,0,.1.2.1.3.1s.3,0,.3-.1c.4-.4,1-.6,1.6-.7h0c.6,0,1.2.2,1.6.7.2.2.5.2.7,0s.2-.5,0-.7c-.6-.6-1.4-.9-2.3-.9Z" />
  <path class="cls-1" d="M54.3,17c-.3.3-.5.7-.5,1.2,0,.4.2.9.5,1.2.3.3.8.5,1.2.5s.9-.2,1.2-.5c.7-.7.6-1.7,0-2.4-.6-.6-1.7-.6-2.4,0Z" />
  <path class="cls-1" d="M58.5,14.6c0,.1.2.1.3.1s.3,0,.3-.1c.2-.2.2-.5,0-.7-2-2-5.5-2-7.5,0-.2.2-.2.5,0,.7.2.2.5.2.7,0,1.7-1.6,4.5-1.6,6.1,0Z" />
  <path class="cls-1" d="M59.9,13.2c0,.1.2.1.3.1s.3,0,.3-.1c.2-.2.2-.5,0-.7-2.8-2.8-7.5-2.8-10.4,0-.2.2-.2.5,0,.7.2.2.5.2.7,0,2.4-2.4,6.5-2.4,9,0Z" />
  <path class="cls-1" d="M60.7,48.5v-6c.8,0,1.3-.7,1.3-1.5v-2.8c0-.8-.6-1.4-1.3-1.5v-14.9h4.2c2.5,0,4.5-2,4.5-4.5s-2-4.5-4.5-4.5-.5,0-.7,0c0-.4,0-.8,0-1.1,0-4.3-3.5-7.8-7.8-7.8s-6.5,2.3-7.5,5.6c-.4-.1-.9-.2-1.3-.2-2.5,0-4.5,2-4.5,4.5s0,.5,0,.8c-1.7.4-2.9,1.8-2.9,3.6s1.7,3.7,3.7,3.7h13.6v14.9c-.7,0-1.3.7-1.3,1.4h-9.6v-4.9c0-1.8-1.5-3.2-3.2-3.2h-26.6v-5.2c4.9-.8,8.7-5,8.7-10.1s-4.6-10.3-10.2-10.3S5,9,5,14.7s3.8,9.4,8.7,10.1v5.2h-6c-1.8,0-3.2,1.4-3.2,3.2v26.1c0,1.8,1.4,3.2,3.2,3.2h11.8v3.3h-3.6c-.8,0-1.4.7-1.4,1.4s.6,1.4,1.4,1.4h19.3c.8,0,1.4-.7,1.4-1.4s-.7-1.4-1.4-1.4h-3.6v-3.3h11.8c1.8,0,3.2-1.5,3.2-3.2v-18.3h9.6c0,.7.6,1.3,1.3,1.4v6c-4.9.8-8.7,5-8.7,10.1s4.6,10.2,10.2,10.2,10.2-4.6,10.2-10.2-3.8-9.4-8.7-10.1ZM6.1,14.7c0-5.1,4.1-9.3,9.2-9.3s9.2,4.2,9.2,9.3-4.1,9.2-9.2,9.2-9.2-4.1-9.2-9.2ZM15.8,24.9v5.1h-1.1v-5.1c.2,0,.4,0,.5,0s.4,0,.5,0ZM6.6,33.3c0-.7.5-1.2,1.2-1.2h35.7c.7,0,1.2.5,1.2,1.2v19.7c0,.7-.5,1.2-1.2,1.2H7.7c-.7,0-1.2-.5-1.2-1.2v-19.7ZM43.4,61.6H7.7c-1.2,0-2.2-1-2.2-2.2v-4.2c.6.6,1.4.9,2.2.9h35.7c.9,0,1.6-.3,2.2-.9v4.1c0,1.2-1,2.2-2.2,2.2ZM56.3,40.1h-9.6v-1h9.6v1ZM44.1,20.8c-1.5,0-2.7-1.2-2.7-2.7s1.1-2.6,2.5-2.7c.2,0,.3,0,.4-.2s.1-.3,0-.4c-.1-.3-.2-.7-.2-1.1,0-1.9,1.6-3.5,3.5-3.5s1,.1,1.5.3c.1,0,.3,0,.4,0,.1,0,.2-.2.3-.3.7-3.1,3.5-5.3,6.7-5.3s6.8,3.1,6.8,6.8,0,1.1-.2,1.7c0,.2,0,.4.2.5s.3.2.5,0c.4-.1.8-.2,1.2-.2,1.9,0,3.5,1.6,3.5,3.5s-1.6,3.5-3.5,3.5h-6.8s-14.1,0-14.1,0ZM58.6,36.7v-14.9h1.1v14.9h-1.1ZM59.7,42.5v5.9c-.2,0-.4,0-.6,0s-.4,0-.5,0v-5.9h1.1ZM59.2,67.9c-5.1,0-9.2-4.1-9.2-9.2s4.2-9.3,9.2-9.3,9.2,4.2,9.2,9.3c0,5.1-4.1,9.2-9.2,9.2Z" />
  <path class="cls-1" d="M64.3,56l.6-.9c.2-.3.2-.8-.1-1.1l-.8-.8c-.3-.3-.7-.3-1.1-.1l-.9.6c-.3-.2-.6-.3-1-.4l-.3-1.1c0-.4-.5-.7-.9-.7h-1.2c-.4,0-.8.3-.9.7l-.3,1.1c-.3,0-.6.2-.9.4l-1-.6c-.3-.2-.8-.2-1.1.1l-.8.8c-.3.3-.3.7-.1,1.1l.6.9c-.2.3-.3.6-.4,1l-1.1.3c-.4,0-.7.4-.7.9v1.2c0,.4.3.8.7.9l1.1.3c.1.3.2.7.4,1l-.6.9c-.2.3-.2.8.1,1.1l.8.9c.3.3.7.3,1.1.1l1-.6c.3.2.6.3.9.4l.3,1.1c0,.4.5.7.9.7h1.2c.4,0,.8-.3.9-.7l.3-1.1c.3,0,.6-.2,1-.4l.9.6c.3.2.8.2,1.1-.1l.9-.8c.3-.3.3-.7.1-1.1l-.6-.9c.2-.3.3-.6.4-1l1.1-.3c.4,0,.7-.5.7-.9v-1.2c0-.4-.3-.8-.7-.9l-1.1-.3c-.1-.3-.2-.6-.4-.9ZM59.2,62.2c-2,0-3.5-1.6-3.5-3.5s1.6-3.5,3.5-3.5,3.5,1.6,3.5,3.5-1.6,3.5-3.5,3.5Z" />
  <path class="cls-1" d="M25.7,50.1c3.8,0,7-3.1,7-7s-3.1-7-7-7-7,3.1-7,7,3.1,7,7,7ZM25.7,37.1c3.3,0,6,2.7,6,6s-2.7,6-6,6-6-2.7-6-6,2.7-6,6-6Z" />
  <path class="cls-1" d="M23.9,45.3c.2.2.5.3.8.3s.6-.1.8-.3l3.8-3.8c.2-.2.2-.5,0-.7s-.5-.2-.7,0l-3.8,3.8h-.1l-1.7-1.7c-.2-.2-.5-.2-.7,0s-.2.5,0,.7l1.7,1.7Z" />
  <path class="cls-1" d="M17,21.4l.3-1.1c.3-.1.6-.2,1-.4l.9.6c.4.2.8.2,1.1-.1l.9-.9c.3-.3.3-.7.1-1.1l-.6-.9c.2-.3.3-.6.4-1l1.1-.3c.4,0,.7-.5.7-.9v-1.2c0-.4-.3-.8-.7-.9l-1.1-.3c-.1-.3-.2-.6-.4-.9l.6-.9c.2-.4.1-.8-.1-1.1l-.9-.9c-.3-.3-.7-.3-1.1-.1l-.9.6c-.3-.2-.6-.3-1-.4l-.3-1.1c0-.4-.5-.7-.9-.7h-1.2c-.4,0-.8.3-.9.7l-.3,1.1c-.3.1-.6.2-.9.4l-.9-.6c-.4-.2-.8-.2-1.1.1l-.9.9c-.3.3-.3.7-.1,1.1l.6.9c-.2.3-.3.6-.4,1l-1.1.3c-.4,0-.7.4-.7.9v1.2c0,.4.3.8.7.9l1.1.3c.1.3.2.6.4,1l-.6.9c-.2.4-.2.8.1,1.1l.9.9c.3.3.7.4,1.1.1l.9-.6c.3.2.6.3.9.4l.3,1.1c.1.4.4.7.9.7h1.2c.4,0,.8-.3.9-.7ZM12.1,14.8c0-1.9,1.6-3.5,3.5-3.5s3.5,1.6,3.5,3.5-1.6,3.5-3.5,3.5-3.5-1.6-3.5-3.5Z" />
  <path class="cls-1" d="M25.6,57.6c-.8,0-1.5.7-1.5,1.5s.7,1.5,1.5,1.5,1.5-.7,1.5-1.5-.7-1.5-1.5-1.5Z" />
</svg>