<svg xmlns="http://www.w3.org/2000/svg" xmlns:xlink="http://www.w3.org/1999/xlink" version="1.1" x="0px" y="0px" viewBox="0 0 256 256" enable-background="new 0 0 256 256" xml:space="preserve">
  <metadata> Svg Vector Icons : http://www.onlinewebfonts.com/icon </metadata>
  <g>
    <g>
      <path fill="#ffc261" data-title="Layer 0" xs="0" d="M171.5,208.7c-14.6,8.2-42.9,13.8-75.4,13.8C48.5,222.5,10,210.6,10,196v48.8h172.1v-7.1C176.7,231.6,172.5,218.7,171.5,208.7z" />
      <path fill="#ffc261" data-title="Layer 1" xs="1" d="M143.5,177c-17.7,0-33-9.8-40.9-24.3c-2.3,0.1-4.7,0.2-6.5,0.2c-47.1,0-85.2-11.7-86-26.1H10v51.1c0,0,0.6,25.2,90.5,26.6c34.9,0.3,56.4-6.8,66-11l-17-16.8C147.5,176.8,145.5,177,143.5,177z" />
      <path fill="#ffc261" data-title="Layer 2" xs="2" d="M102.6,108.7l26,11.8l5.9-5.9l-13.2-24.9c8.3-5.6,33.5-12.5,56.9,9.2c1.3,1.4,2.6,3.4,4,5.5V58.6c-4.8,13.3-41.2,23.6-85.5,23.6c-45.4,0-82.6-10.9-85.8-24.6H10v51.1c0,0,9.9,24.2,87.2,25.8C96.1,126.6,99.5,113.3,102.6,108.7z" />
      <path fill="#ffc261" data-title="Layer 3" xs="3" d="M182.2,37.8c0,14.7-38.6,26.6-86.1,26.6C48.5,64.3,10,52.4,10,37.8c0-14.6,38.5-26.5,86.1-26.5C143.6,11.2,182.2,23.1,182.2,37.8z" />
      <path fill="#ffc261" data-title="Layer 4" xs="4" d="M245.9,208.5c0.7-8-2-16.3-8.2-22.4c-8.6-8.5-21.4-10.2-31.8-5.3L168.4,143c5.4-10.5,3.8-23.7-5-32.6c-6.1-6.2-14.4-8.8-22.5-8.1l10,21.5l-14.1,14l-21.4-10.2c-0.8,8,1.8,16.4,7.9,22.5c8.4,8.5,20.8,10.5,31.2,6.1l38,38.1c-4.9,10.5-3.1,23.4,5.7,32c6.2,6.1,14.5,8.6,22.6,7.9l-10.3-21.4l14-14.2L245.9,208.5z" />
    </g>
  </g>
</svg>